<svg id="Layer_1" data-name="Layer 1" xmlns="http://www.w3.org/2000/svg" viewBox="0 0 1000 1000"><defs><style>.cls-1{fill:#1b2b58;}.cls-2{fill:#494849;}.cls-3{fill:#e64c3c;}.cls-4{fill:#fcbe12;}</style></defs><title>BH_Logo_AI</title><path class="cls-1" d="M652.54,414.88a102.58,102.58,0,0,0-133.2,0V305.64h-36v203a66.6,66.6,0,0,1-131.28-13.53v-4.42c0,.73,0,1.47,0,2.21h0c0-.74,0-1.48,0-2.21h0a66.62,66.62,0,0,1,95.28-57.89V394.4a102.72,102.72,0,0,0-95.28,20.45V305.64h-36V490c0,1,0,1.94,0,2.91s0,1.94,0,2.91h0a102.61,102.61,0,0,0,184.53,58.81c.57-.76,1.14-1.54,1.69-2.32a101.89,101.89,0,0,0,17.06-39.77V492.92a66.6,66.6,0,1,1,133.2,0v102.6h36V492.92A102.36,102.36,0,0,0,652.54,414.88Z"/><path class="cls-2" d="M262.23,666.62v-.32c4.57-1.6,7.26-6.4,7.26-11.32,0-9.61-7.9-12.9-18.66-12.9H234.1V694.4h18.08c11.52,0,20.1-4.9,20.1-15.36C272.28,672,268,667.94,262.23,666.62Zm-18.85-17.31h6.82c6.78,0,10.2,1.92,10.2,7,0,4.54-3.1,7.39-10.4,7.39h-6.62Zm7.84,37.86h-7.84V670.62h7.84c7.81,0,12,2.4,12,7.91C263.19,684.42,258.9,687.17,251.22,687.17Z"/><path class="cls-2" d="M315.75,657.6c0-11.68-8.38-15.52-19.26-15.52H278.86V694.4h9.28V674h8l11.26,20.45H317.8l-12.52-21.81C311.57,670.4,315.75,665.54,315.75,657.6Zm-27.61-8.1h7.39c7.17,0,11.07,2.08,11.07,8.1s-3.9,8.93-11.07,8.93h-7.39Z"/><path class="cls-2" d="M336.66,642.08,319.6,694.4h9.47l4.09-14.18h17.55l4.06,14.18h9.82l-17-52.32Zm-1.4,30.86,1.85-6.38c1.66-5.54,3.2-11.46,4.64-17.25h.32c1.53,5.75,3.07,11.71,4.73,17.25l1.83,6.38Z"/><path class="cls-2" d="M396.59,664.8c0,5.82.74,12.45,1.19,17.86h-.32l-5.41-11.17-16.26-29.41h-9.53V694.4h8.83V671.49c0-5.83-.74-12.13-1.18-17.67h.32l5.4,11.12,16.26,29.46h9.54V642.08h-8.84Z"/><path class="cls-2" d="M426.69,642.08H412.74V694.4h14.43c15.55,0,25-9.06,25-26.37S442.72,642.08,426.69,642.08Zm-.61,44.8H422V649.6h4.06c10.53,0,16.58,5.57,16.58,18.43S436.61,686.88,426.08,686.88Z"/><rect class="cls-2" x="458.74" y="642.08" width="9.28" height="52.32"/><path class="cls-2" d="M505.63,664.8c0,5.82.74,12.45,1.19,17.86h-.32l-5.41-11.17-16.26-29.41H475.3V694.4h8.83V671.49c0-5.83-.74-12.13-1.18-17.67h.31l5.41,11.12,16.26,29.46h9.54V642.08h-8.84Z"/><path class="cls-2" d="M543.19,666.08v7.62h9.86V685c-1.67,1.47-4.55,2.31-7.46,2.31-10.49,0-16-7.24-16-19.17,0-11.75,6.24-19,15.52-19a14.15,14.15,0,0,1,10.56,4.55l5-6a21.51,21.51,0,0,0-15.81-6.62c-13.92,0-24.77,10.17-24.77,27.3,0,17.31,10.53,26.94,24.65,26.94,7.16,0,13.21-2.69,16.7-6.21V666.08Z"/><path class="cls-3" d="M695.38,641.49h31.49v7.81H704.66v13.41h18.82v7.81H704.66V686h23v7.81H695.38Z"/><path class="cls-3" d="M732.83,687.11l5.41-6.37c3.75,3.57,8.77,6,13.63,6,5.89,0,9.12-2.67,9.12-6.75,0-4.31-3.37-5.68-8.12-7.7l-7.16-3.1c-5.15-2.15-10.57-6.23-10.57-13.88,0-8.33,7.36-14.75,17.57-14.75a23,23,0,0,1,16.13,6.67l-4.77,5.89a16.86,16.86,0,0,0-11.36-4.49c-5,0-8.2,2.32-8.2,6.14,0,4.11,4,5.63,8.32,7.41l7.06,3c6.22,2.59,10.58,6.53,10.58,14.11,0,8.48-7,15.55-18.79,15.55A27,27,0,0,1,732.83,687.11Z"/><path class="cls-3" d="M620.58,641.49h-9.29v21H590.15v-21h-9.28v52.32h9.28v-23.2h21.14v23.2h9.29v-6c-4.23-4.72-6.7-11.67-6.7-20.32s2.46-15.49,6.7-20.1Z"/><path class="cls-3" d="M670.31,641.49H653.83v6.44c3.92,4.61,6.19,11.24,6.19,19.51s-2.27,15-6.19,19.73v6.64h9.28V674.58h7.52c11.25,0,19.89-5.3,19.89-17C690.52,645.52,681.92,641.49,670.31,641.49Zm-.45,25.66h-6.75V648.91h6.43c7.77,0,11.84,2.21,11.84,8.71S677.67,667.15,669.86,667.15Z"/><path class="cls-1" d="M655.72,667.49c0,13.7-7.64,22.11-18.67,22.11s-18.67-8.41-18.67-22.11,7.64-21.78,18.67-21.78S655.72,653.83,655.72,667.49Z"/><path class="cls-4" d="M643.75,679.73c1.87-5.48.7-8.63-4.16-11.52-.76-.45-1.5-.92-2.27-1.35a5.23,5.23,0,0,1-2.7-6,18.45,18.45,0,0,1,1.74-4.79c.29-.61.54-.63,1-.16,2.66,2.7,5.55,5.17,8,8.1a14.55,14.55,0,0,1,3,6.93C648.93,674.43,647.18,677.73,643.75,679.73Z"/><path class="cls-4" d="M631.61,663a5.16,5.16,0,0,0,2.48,5.13c.92.61.61.86-.14,1.3a7.77,7.77,0,0,0-3.64,8.36c.06.33.33.7-.09,1s-.68,0-1-.17a6.58,6.58,0,0,1-3.42-7.3C626.54,667.8,628.56,665.24,631.61,663Z"/></svg>